<svg width="49" height="29" viewBox="0 0 49 29" fill="none" xmlns="http://www.w3.org/2000/svg">
<path d="M17.3799 23.25H30.7649C31.1499 23.25 31.5192 23.0982 31.7914 22.828C32.0637 22.5579 32.2166 22.1914 32.2166 21.8093L37.2717 3.44077C37.2717 3.25013 37.2336 3.06138 37.1595 2.88546C37.0855 2.70954 36.977 2.54996 36.8404 2.41595C36.7038 2.28195 36.5417 2.17619 36.3635 2.1048C36.1854 2.03342 35.9948 1.99783 35.8027 2.0001H13.8629C13.4771 2.0001 13.107 2.1516 12.8334 2.42154C12.5597 2.69147 12.4049 3.0579 12.4026 3.44077L8.08203 21.8093C8.08203 22.1914 8.23498 22.5579 8.50723 22.828C8.77947 23.0982 9.14872 23.25 9.53374 23.25H11.4175" stroke="#0A0908" stroke-width="3"/>
<path d="M34.296 23.25H31.1875L35.6666 8.25H43.0301C43.1409 8.24976 43.2504 8.27292 43.3509 8.31787C43.4515 8.36282 43.5407 8.42848 43.6124 8.51027L46.8194 13.9759C46.9343 14.1032 46.9979 14.2665 46.9986 14.4357L44.0155 23.25H40.7906" stroke="#0A0908" stroke-width="3"/>
<path d="M14.7711 27C16.4503 27 17.8116 25.6009 17.8116 23.875C17.8116 22.1491 16.4503 20.75 14.7711 20.75C13.0918 20.75 11.7305 22.1491 11.7305 23.875C11.7305 25.6009 13.0918 27 14.7711 27Z" stroke="#0A0908" stroke-width="3"/>
<path d="M37.8804 27C39.5597 27 40.921 25.6009 40.921 23.875C40.921 22.1491 39.5597 20.75 37.8804 20.75C36.2012 20.75 34.8398 22.1491 34.8398 23.875C34.8398 25.6009 36.2012 27 37.8804 27Z" stroke="#0A0908" stroke-width="3"/>
<path d="M19.027 5.75H5.64844" stroke="#0A0908" stroke-width="3" stroke-linecap="round"/>
<path d="M16.5951 10.75H6.86523" stroke="#0A0908" stroke-width="3" stroke-linecap="round"/>
<path d="M17.8111 15.75H2" stroke="#0A0908" stroke-width="3" stroke-linecap="round"/>
</svg>
