<svg width="26" height="33" viewBox="0 0 26 33" fill="none" xmlns="http://www.w3.org/2000/svg">
<path d="M12.9973 0C14.7101 0.000688445 16.406 0.332595 17.9875 0.976668C19.569 1.62074 21.0051 2.5643 22.2132 3.75318C23.4213 4.94206 24.3777 6.35286 25.0276 7.90459C25.6774 9.45633 26.0078 11.1184 25.9999 12.7955C25.9999 21.6371 16.6849 29.7436 13.8192 31.8896C13.5786 32.0841 13.2764 32.1905 12.9644 32.1905C12.6524 32.1905 12.3502 32.0841 12.1096 31.8896C9.2384 29.6792 0.000139236 21.6371 0.000139236 12.7955C-0.00779533 11.1189 0.322447 9.45722 0.971926 7.90583C1.6214 6.35445 2.57734 4.94389 3.78488 3.75508C4.99242 2.56627 6.4278 1.6226 8.00869 0.978211C9.58958 0.333822 11.2849 0.00139452 12.9973 0ZM12.9973 18.0854C14.081 18.0854 15.1404 17.7708 16.0414 17.1813C16.9425 16.5917 17.6448 15.7538 18.0596 14.7735C18.4743 13.7932 18.5828 12.7145 18.3714 11.6738C18.1599 10.6331 17.6381 9.6771 16.8718 8.92679C16.1055 8.17648 15.1291 7.66552 14.0662 7.45851C13.0033 7.2515 11.9016 7.35774 10.9004 7.76381C9.89916 8.16987 9.04339 8.85752 8.44131 9.73979C7.83923 10.6221 7.51787 11.6593 7.51787 12.7204C7.51787 14.1433 8.09516 15.5079 9.12275 16.5141C10.1503 17.5202 11.544 18.0854 12.9973 18.0854Z" fill="#0A0908"/>
</svg>
