<svg width="151" height="382" viewBox="0 0 151 382" fill="none" xmlns="http://www.w3.org/2000/svg">
<path d="M151 9.97079L80.0189 89.3916V31.86C80.0189 27.3867 79.6078 22.9196 78.792 18.5217L75.3514 0L72.227 18.7541C71.5187 22.995 71.1645 27.2924 71.1645 31.5962V89.8753L0 9.97707V369.654L71.1645 288.606V351.095C71.1645 356.19 71.6451 361.273 72.6002 366.28L75.5917 382L78.9311 364.477C79.6584 360.67 80.0189 356.806 80.0189 352.93V288.77L151 369.661V9.97079ZM8.85445 195.175V182.113L37.6124 149.964L69.9375 187.353L36.221 226.199L8.85445 195.175ZM30.6996 232.564L8.85445 257.733V207.671L30.6996 232.564ZM8.85445 169.02V116.697L31.8444 143.292L8.85445 169.02ZM71.1645 175.931L43.2034 143.713L71.1645 112.456V175.931ZM80.0189 112.588L107.847 143.669L80.0189 175.736V112.588ZM71.1645 198.819V265.812L41.9195 232.652L71.1645 198.819ZM80.0189 199.014L109.131 232.683L80.0189 265.662V199.014ZM81.0815 187.353L113.444 149.92L142.146 181.975V195.282L114.823 226.231L81.0815 187.353ZM142.146 207.778V257.708L120.351 232.595L142.146 207.778ZM118.966 143.53L142.146 116.722V169.554L118.966 143.53ZM142.146 104.156L113.394 137.279L81.2459 101.184L142.146 33.1103V104.156ZM69.6466 101.002L37.4227 137.053L8.85445 104.137V33.104L69.6466 101.002ZM8.85445 270.895L36.3855 239.048L69.849 277.184L8.85445 346.282V270.895ZM81.2016 277.184L114.659 239.079L142.146 270.87V346.276L81.2016 277.184Z" fill="black"/>
</svg>
