<svg width="40" height="100" viewBox="0 0 40 100" fill="none" xmlns="http://www.w3.org/2000/svg">
<path d="M40 2.61015L21.1971 23.4009V8.34032C21.1971 7.16929 21.0882 5.9999 20.872 4.8486L19.9606 0L19.133 4.90946C18.9453 6.01964 18.8515 7.14462 18.8515 8.27125V23.5276L0 2.6118V96.7681L18.8515 75.5514V91.9097C18.8515 93.2435 18.9788 94.5741 19.2318 95.8849L20.0243 100L20.9089 95.4129C21.1016 94.4162 21.1971 93.4047 21.1971 92.3899V75.5941L40 96.7698V2.61015ZM2.34555 51.0929V47.6736L9.96356 39.2576L18.5265 49.0452L9.59497 59.2145L2.34555 51.0929ZM8.13236 60.8806L2.34555 67.4693V54.3642L8.13236 60.8806ZM2.34555 44.246V30.5488L8.4356 37.5109L2.34555 44.246ZM18.8515 46.0552L11.4446 37.6211L18.8515 29.4387V46.0552ZM21.1971 29.4732L28.5688 37.6096L21.1971 46.0042V29.4732ZM18.8515 52.0468V69.5844L11.1045 60.9036L18.8515 52.0468ZM21.1971 52.0978L28.9089 60.9118L21.1971 69.5449V52.0978ZM21.4785 49.0452L30.0515 39.2461L37.6544 47.6374V51.1209L30.4168 59.2227L21.4785 49.0452ZM37.6544 54.3922V67.4627L31.881 60.8888L37.6544 54.3922ZM31.5141 37.5734L37.6544 30.5554V44.3858L31.5141 37.5734ZM37.6544 27.266L30.0381 35.9369L21.5221 26.4881L37.6544 8.66762V27.266ZM18.4494 26.4404L9.9133 35.8777L2.34555 27.2611V8.66598L18.4494 26.4404ZM2.34555 70.915L9.63853 62.5779L18.503 72.5613L2.34555 90.6498V70.915ZM21.5104 72.5613L30.3732 62.5861L37.6544 70.9084V90.6482L21.5104 72.5613Z" fill="#E7E4E4"/>
</svg>
