<svg width="246" height="100" viewBox="0 0 246 100" fill="none" xmlns="http://www.w3.org/2000/svg">
<path d="M40 2.61015L21.1971 23.4009V8.34032C21.1971 7.16929 21.0882 5.9999 20.872 4.8486L19.9606 0L19.133 4.90946C18.9453 6.01964 18.8515 7.14462 18.8515 8.27125V23.5276L0 2.6118V96.7681L18.8515 75.5514V91.9097C18.8515 93.2435 18.9788 94.5741 19.2318 95.8849L20.0243 100L20.9089 95.4129C21.1016 94.4162 21.1971 93.4047 21.1971 92.3899V75.5941L40 96.7698V2.61015ZM2.34555 51.0929V47.6736L9.96356 39.2576L18.5265 49.0452L9.59497 59.2145L2.34555 51.0929ZM8.13236 60.8806L2.34555 67.4693V54.3642L8.13236 60.8806ZM2.34555 44.246V30.5488L8.4356 37.5109L2.34555 44.246ZM18.8515 46.0552L11.4446 37.6211L18.8515 29.4387V46.0552ZM21.1971 29.4732L28.5688 37.6096L21.1971 46.0042V29.4732ZM18.8515 52.0468V69.5844L11.1045 60.9036L18.8515 52.0468ZM21.1971 52.0978L28.9089 60.9118L21.1971 69.5449V52.0978ZM21.4785 49.0452L30.0515 39.2461L37.6544 47.6374V51.1209L30.4168 59.2227L21.4785 49.0452ZM37.6544 54.3922V67.4627L31.881 60.8888L37.6544 54.3922ZM31.5141 37.5734L37.6544 30.5554V44.3858L31.5141 37.5734ZM37.6544 27.266L30.0381 35.9369L21.5221 26.4881L37.6544 8.66762V27.266ZM18.4494 26.4404L9.9133 35.8777L2.34555 27.2611V8.66598L18.4494 26.4404ZM2.34555 70.915L9.63853 62.5779L18.503 72.5613L2.34555 90.6498V70.915ZM21.5104 72.5613L30.3732 62.5861L37.6544 70.9084V90.6482L21.5104 72.5613Z" fill="#E7E4E4"/>
<path d="M70.548 63L59.676 37.8H65.976L75.48 60.12H71.772L81.42 37.8H87.216L76.308 63H70.548ZM94.684 47.952H106.816V52.488H94.684V47.952ZM95.116 58.32H108.832V63H89.32V37.8H108.364V42.48H95.116V58.32ZM113.472 63V37.8H124.38C126.636 37.8 128.58 38.172 130.212 38.916C131.844 39.636 133.104 40.68 133.992 42.048C134.88 43.416 135.324 45.048 135.324 46.944C135.324 48.816 134.88 50.436 133.992 51.804C133.104 53.148 131.844 54.18 130.212 54.9C128.58 55.62 126.636 55.98 124.38 55.98H116.712L119.304 53.424V63H113.472ZM129.492 63L123.192 53.856H129.42L135.792 63H129.492ZM119.304 54.072L116.712 51.336H124.056C125.856 51.336 127.2 50.952 128.088 50.184C128.976 49.392 129.42 48.312 129.42 46.944C129.42 45.552 128.976 44.472 128.088 43.704C127.2 42.936 125.856 42.552 124.056 42.552H116.712L119.304 39.78V54.072ZM139.945 63V37.8H151.393C154.129 37.8 156.541 38.328 158.629 39.384C160.717 40.416 162.349 41.868 163.525 43.74C164.701 45.612 165.289 47.832 165.289 50.4C165.289 52.944 164.701 55.164 163.525 57.06C162.349 58.932 160.717 60.396 158.629 61.452C156.541 62.484 154.129 63 151.393 63H139.945ZM145.777 58.212H151.105C152.785 58.212 154.237 57.9 155.461 57.276C156.709 56.628 157.669 55.716 158.341 54.54C159.037 53.364 159.385 51.984 159.385 50.4C159.385 48.792 159.037 47.412 158.341 46.26C157.669 45.084 156.709 44.184 155.461 43.56C154.237 42.912 152.785 42.588 151.105 42.588H145.777V58.212ZM175.051 47.952H187.183V52.488H175.051V47.952ZM175.483 58.32H189.199V63H169.687V37.8H188.731V42.48H175.483V58.32ZM193.84 63V37.8H204.748C207.004 37.8 208.948 38.172 210.58 38.916C212.212 39.636 213.472 40.68 214.36 42.048C215.248 43.416 215.692 45.048 215.692 46.944C215.692 48.816 215.248 50.436 214.36 51.804C213.472 53.148 212.212 54.18 210.58 54.9C208.948 55.62 207.004 55.98 204.748 55.98H197.08L199.672 53.424V63H193.84ZM209.86 63L203.56 53.856H209.788L216.16 63H209.86ZM199.672 54.072L197.08 51.336H204.424C206.224 51.336 207.568 50.952 208.456 50.184C209.344 49.392 209.788 48.312 209.788 46.944C209.788 45.552 209.344 44.472 208.456 43.704C207.568 42.936 206.224 42.552 204.424 42.552H197.08L199.672 39.78V54.072ZM217 63L228.232 37.8H233.992L245.26 63H239.14L229.924 40.752H232.228L222.976 63H217ZM222.616 57.6L224.164 53.172H237.124L238.708 57.6H222.616Z" fill="#F2F4F3"/>
</svg>
