<svg width="187" height="179" viewBox="0 0 187 179" fill="none" xmlns="http://www.w3.org/2000/svg">
<path d="M116 2.97553L94.8467 26.6766V9.50781C94.8467 8.17286 94.7242 6.83978 94.481 5.52732L93.4557 0L92.5246 5.59669C92.3135 6.86227 92.208 8.14473 92.208 9.42906V26.821L71 2.9774V110.314L92.208 86.1272V104.775C92.208 106.296 92.3512 107.813 92.6358 109.307L93.5273 113.998L94.5225 108.769C94.7393 107.633 94.8467 106.48 94.8467 105.323V86.1759L116 110.316V2.97553ZM73.6387 58.245V54.347L82.209 44.7529L91.8423 55.9107L81.7943 67.5034L73.6387 58.245ZM80.1489 69.4027L73.6387 76.9137V61.9742L80.1489 69.4027ZM73.6387 50.4396V34.8251L80.4901 42.7617L73.6387 50.4396ZM92.208 52.502L83.8752 42.8873L92.208 33.5595V52.502ZM94.8467 33.5989L103.14 42.8742L94.8467 52.4439V33.5989ZM92.208 59.3324V79.3249L83.4926 69.429L92.208 59.3324ZM94.8467 59.3905L103.523 69.4383L94.8467 79.2799V59.3905ZM95.1633 55.9107L104.808 44.7398L113.361 54.3057V58.2768L105.219 67.5128L95.1633 55.9107ZM113.361 62.0061V76.9062L106.866 69.4121L113.361 62.0061ZM106.453 42.833L113.361 34.8326V50.599L106.453 42.833ZM113.361 31.0827L104.793 40.9674L95.2124 30.1959L113.361 9.88093V31.0827ZM91.7556 30.1415L82.1525 40.8999L73.6387 31.0771V9.87905L91.7556 30.1415ZM73.6387 80.8417L81.8434 71.3377L91.8159 82.7185L73.6387 103.339V80.8417ZM95.1992 82.7185L105.17 71.347L113.361 80.8342V103.337L95.1992 82.7185Z" fill="#E7E4E4"/>
<path d="M11.548 170L0.676 144.8H6.976L16.48 167.12H12.772L22.42 144.8H28.216L17.308 170H11.548ZM35.684 154.952H47.816V159.488H35.684V154.952ZM36.116 165.32H49.832V170H30.32V144.8H49.364V149.48H36.116V165.32ZM54.4724 170V144.8H65.3804C67.6364 144.8 69.5804 145.172 71.2124 145.916C72.8444 146.636 74.1044 147.68 74.9924 149.048C75.8804 150.416 76.3244 152.048 76.3244 153.944C76.3244 155.816 75.8804 157.436 74.9924 158.804C74.1044 160.148 72.8444 161.18 71.2124 161.9C69.5804 162.62 67.6364 162.98 65.3804 162.98H57.7124L60.3044 160.424V170H54.4724ZM70.4924 170L64.1924 160.856H70.4204L76.7924 170H70.4924ZM60.3044 161.072L57.7124 158.336H65.0564C66.8564 158.336 68.2004 157.952 69.0884 157.184C69.9764 156.392 70.4204 155.312 70.4204 153.944C70.4204 152.552 69.9764 151.472 69.0884 150.704C68.2004 149.936 66.8564 149.552 65.0564 149.552H57.7124L60.3044 146.78V161.072ZM80.945 170V144.8H92.393C95.129 144.8 97.541 145.328 99.629 146.384C101.717 147.416 103.349 148.868 104.525 150.74C105.701 152.612 106.289 154.832 106.289 157.4C106.289 159.944 105.701 162.164 104.525 164.06C103.349 165.932 101.717 167.396 99.629 168.452C97.541 169.484 95.129 170 92.393 170H80.945ZM86.777 165.212H92.105C93.785 165.212 95.237 164.9 96.461 164.276C97.709 163.628 98.669 162.716 99.341 161.54C100.037 160.364 100.385 158.984 100.385 157.4C100.385 155.792 100.037 154.412 99.341 153.26C98.669 152.084 97.709 151.184 96.461 150.56C95.237 149.912 93.785 149.588 92.105 149.588H86.777V165.212ZM116.051 154.952H128.183V159.488H116.051V154.952ZM116.483 165.32H130.199V170H110.687V144.8H129.731V149.48H116.483V165.32ZM134.84 170V144.8H145.748C148.004 144.8 149.948 145.172 151.58 145.916C153.212 146.636 154.472 147.68 155.36 149.048C156.248 150.416 156.692 152.048 156.692 153.944C156.692 155.816 156.248 157.436 155.36 158.804C154.472 160.148 153.212 161.18 151.58 161.9C149.948 162.62 148.004 162.98 145.748 162.98H138.08L140.672 160.424V170H134.84ZM150.86 170L144.56 160.856H150.788L157.16 170H150.86ZM140.672 161.072L138.08 158.336H145.424C147.224 158.336 148.568 157.952 149.456 157.184C150.344 156.392 150.788 155.312 150.788 153.944C150.788 152.552 150.344 151.472 149.456 150.704C148.568 149.936 147.224 149.552 145.424 149.552H138.08L140.672 146.78V161.072ZM158 170L169.232 144.8H174.992L186.26 170H180.14L170.924 147.752H173.228L163.976 170H158ZM163.616 164.6L165.164 160.172H178.124L179.708 164.6H163.616Z" fill="#F2F4F3"/>
</svg>
