<svg width="241" height="241" viewBox="0 0 241 241" fill="none" xmlns="http://www.w3.org/2000/svg">
<path d="M30.4169 131.321C27.1446 124.474 27.1446 116.515 30.4169 109.669C31.8317 106.709 34.2443 103.878 39.0697 98.2159C40.9901 95.9623 41.9504 94.8356 42.757 93.6322C44.6059 90.8735 45.8892 87.7756 46.5323 84.5176C46.813 83.0963 46.9307 81.6205 47.1663 78.669C47.758 71.2532 48.0539 67.5453 49.1466 64.4518C51.6738 57.2968 57.3017 51.669 64.4567 49.1417C67.5501 48.049 71.2581 47.7531 78.6739 47.1613C81.6254 46.9259 83.1012 46.8081 84.5225 46.5274C87.7805 45.8842 90.8784 44.601 93.637 42.7521C94.8405 41.9455 95.9672 40.9852 98.2208 39.0648C103.883 34.2394 106.714 31.8268 109.674 30.412C116.52 27.1397 124.479 27.1397 131.326 30.412C134.286 31.8268 137.117 34.2394 142.779 39.0648C145.033 40.9852 146.159 41.9455 147.363 42.7521C150.122 44.601 153.22 45.8842 156.477 46.5274C157.899 46.8081 159.374 46.9259 162.326 47.1613C169.742 47.7531 173.45 48.049 176.543 49.1417C183.698 51.669 189.327 57.2968 191.854 64.4518M49.1466 176.538C51.6738 183.693 57.3017 189.322 64.4567 191.849C67.5501 192.942 71.2581 193.237 78.6739 193.829C81.6254 194.064 83.1012 194.183 84.5225 194.463C87.7805 195.107 90.8784 196.389 93.637 198.239C94.8404 199.045 95.9672 200.005 98.2208 201.926C103.883 206.751 106.714 209.164 109.674 210.579C116.52 213.85 124.479 213.85 131.326 210.579C134.286 209.164 137.117 206.751 142.779 201.926C145.033 200.005 146.159 199.045 147.363 198.239C150.122 196.389 153.22 195.107 156.477 194.463C157.899 194.183 159.374 194.064 162.326 193.829C169.742 193.237 173.45 192.942 176.543 191.849C183.698 189.322 189.327 183.693 191.854 176.538C192.947 173.445 193.242 169.737 193.834 162.322C194.069 159.37 194.187 157.894 194.468 156.473C195.111 153.215 196.394 150.117 198.244 147.358C199.05 146.154 200.01 145.028 201.931 142.774C206.756 137.112 209.169 134.281 210.584 131.321C213.855 124.474 213.855 116.515 210.584 109.669" stroke="#ABBD83" stroke-width="15" stroke-linecap="round"/>
<path d="M90.375 150.625L150.625 90.375" stroke="#ABBD83" stroke-width="15" stroke-linecap="round"/>
<path d="M155.646 145.604C155.646 151.15 151.15 155.646 145.604 155.646C140.058 155.646 135.562 151.15 135.562 145.604C135.562 140.058 140.058 135.562 145.604 135.562C151.15 135.562 155.646 140.058 155.646 145.604Z" fill="#ABBD83"/>
<path d="M105.438 95.3958C105.438 100.942 100.942 105.437 95.3959 105.437C89.8501 105.437 85.3542 100.942 85.3542 95.3958C85.3542 89.85 89.8501 85.3541 95.3959 85.3541C100.942 85.3541 105.438 89.85 105.438 95.3958Z" fill="#ABBD83"/>
</svg>
