<svg width="555" height="35" viewBox="0 0 555 35" fill="none" xmlns="http://www.w3.org/2000/svg">
<path d="M13.1563 28.18C11.2843 28.18 9.54431 27.868 7.93631 27.244C6.35231 26.596 4.97231 25.696 3.79631 24.544C2.62031 23.392 1.70831 22.048 1.06031 20.512C0.412313 18.952 0.0883125 17.248 0.0883125 15.4C0.0883125 13.552 0.412313 11.86 1.06031 10.324C1.70831 8.764 2.62031 7.408 3.79631 6.256C4.99631 5.104 6.38831 4.216 7.97231 3.592C9.55631 2.944 11.2843 2.62 13.1563 2.62C14.9323 2.62 16.5883 2.908 18.1243 3.484C19.6843 4.06 21.0163 4.936 22.1203 6.112L20.9683 7.3C19.8883 6.244 18.6883 5.488 17.3683 5.032C16.0723 4.552 14.6923 4.312 13.2283 4.312C11.6203 4.312 10.1203 4.588 8.72831 5.14C7.36031 5.692 6.16031 6.472 5.12831 7.48C4.12031 8.488 3.32831 9.664 2.75231 11.008C2.20031 12.352 1.92431 13.816 1.92431 15.4C1.92431 16.984 2.20031 18.448 2.75231 19.792C3.32831 21.136 4.12031 22.312 5.12831 23.32C6.16031 24.328 7.36031 25.108 8.72831 25.66C10.1203 26.212 11.6203 26.488 13.2283 26.488C14.6923 26.488 16.0723 26.26 17.3683 25.804C18.6883 25.324 19.8883 24.544 20.9683 23.464L22.1203 24.652C21.0163 25.828 19.6843 26.716 18.1243 27.316C16.5883 27.892 14.9323 28.18 13.1563 28.18ZM30.3002 28V10.288L30.8042 10.828H22.9562V9.208H39.4442V10.828H31.5962L32.1002 10.288V28H30.3002ZM43.2982 28V9.208H45.0982V25.228L58.4902 9.208H60.0742V28H58.2742V11.98L44.8822 28H43.2982ZM77.3052 28.144C75.6492 28.144 74.1492 27.76 72.8052 26.992C71.4852 26.224 70.4292 25.132 69.6372 23.716C68.8692 22.276 68.4852 20.572 68.4852 18.604C68.4852 16.636 68.8692 14.944 69.6372 13.528C70.4292 12.088 71.4852 10.984 72.8052 10.216C74.1492 9.448 75.6492 9.064 77.3052 9.064C79.0812 9.064 80.6652 9.472 82.0572 10.288C83.4732 11.08 84.5772 12.196 85.3692 13.636C86.1852 15.076 86.5932 16.732 86.5932 18.604C86.5932 20.476 86.1852 22.132 85.3692 23.572C84.5772 25.012 83.4732 26.14 82.0572 26.956C80.6652 27.748 79.0812 28.144 77.3052 28.144ZM67.8732 34.984V9.208H69.6012V15.364L69.3132 18.64L69.6732 21.916V34.984H67.8732ZM77.1972 26.524C78.6372 26.524 79.9332 26.2 81.0852 25.552C82.2372 24.88 83.1372 23.944 83.7852 22.744C84.4572 21.544 84.7932 20.164 84.7932 18.604C84.7932 17.02 84.4572 15.64 83.7852 14.464C83.1372 13.264 82.2372 12.34 81.0852 11.692C79.9332 11.02 78.6372 10.684 77.1972 10.684C75.7572 10.684 74.4612 11.02 73.3092 11.692C72.1812 12.34 71.2812 13.264 70.6092 14.464C69.9612 15.64 69.6372 17.02 69.6372 18.604C69.6372 20.164 69.9612 21.544 70.6092 22.744C71.2812 23.944 72.1812 24.88 73.3092 25.552C74.4612 26.2 75.7572 26.524 77.1972 26.524ZM104.112 28V23.716L104.04 23.068V16.012C104.04 14.26 103.56 12.928 102.6 12.016C101.664 11.104 100.284 10.648 98.4603 10.648C97.1643 10.648 95.9523 10.876 94.8243 11.332C93.7203 11.764 92.7723 12.328 91.9803 13.024L91.0803 11.728C92.0163 10.888 93.1443 10.24 94.4643 9.784C95.7843 9.304 97.1643 9.064 98.6043 9.064C100.932 9.064 102.72 9.652 103.968 10.828C105.216 12.004 105.84 13.756 105.84 16.084V28H104.112ZM97.3443 28.144C95.9523 28.144 94.7403 27.928 93.7083 27.496C92.7003 27.04 91.9203 26.404 91.3683 25.588C90.8403 24.772 90.5763 23.836 90.5763 22.78C90.5763 21.82 90.7923 20.956 91.2243 20.188C91.6803 19.396 92.4243 18.76 93.4563 18.28C94.4883 17.776 95.8683 17.524 97.5963 17.524H104.508V18.928H97.6323C95.6883 18.928 94.3203 19.288 93.5283 20.008C92.7603 20.728 92.3763 21.628 92.3763 22.708C92.3763 23.908 92.8323 24.868 93.7443 25.588C94.6563 26.308 95.9403 26.668 97.5963 26.668C99.1803 26.668 100.512 26.308 101.592 25.588C102.696 24.868 103.512 23.824 104.04 22.456L104.544 23.68C104.04 25.048 103.176 26.14 101.952 26.956C100.752 27.748 99.2163 28.144 97.3443 28.144ZM120.93 28.144C119.034 28.144 117.354 27.736 115.89 26.92C114.45 26.104 113.31 24.976 112.47 23.536C111.654 22.096 111.246 20.452 111.246 18.604C111.246 16.732 111.63 15.088 112.398 13.672C113.19 12.232 114.27 11.104 115.638 10.288C117.006 9.472 118.542 9.064 120.246 9.064C121.95 9.064 123.474 9.46 124.818 10.252C126.186 11.044 127.254 12.16 128.022 13.6C128.814 15.016 129.21 16.66 129.21 18.532C129.21 18.604 129.198 18.688 129.174 18.784C129.174 18.856 129.174 18.94 129.174 19.036H112.578V17.632H128.202L127.482 18.316C127.506 16.852 127.194 15.544 126.546 14.392C125.922 13.216 125.07 12.304 123.99 11.656C122.91 10.984 121.662 10.648 120.246 10.648C118.854 10.648 117.606 10.984 116.502 11.656C115.422 12.304 114.57 13.216 113.946 14.392C113.322 15.544 113.01 16.864 113.01 18.352V18.676C113.01 20.212 113.346 21.58 114.018 22.78C114.714 23.956 115.662 24.88 116.862 25.552C118.062 26.2 119.43 26.524 120.966 26.524C122.166 26.524 123.282 26.308 124.314 25.876C125.37 25.444 126.258 24.784 126.978 23.896L128.022 25.084C127.206 26.092 126.174 26.86 124.926 27.388C123.702 27.892 122.37 28.144 120.93 28.144ZM135.091 28V9.208H136.855L145.747 24.076H144.955L153.883 9.208H155.539V28H153.883V11.368L154.243 11.512L145.711 25.588H144.883L136.315 11.404L136.747 11.332V28H135.091ZM172.568 28V9.208H180.488C182.552 9.208 184.184 9.616 185.384 10.432C186.584 11.248 187.184 12.436 187.184 13.996C187.184 15.532 186.596 16.696 185.42 17.488C184.268 18.28 182.768 18.676 180.92 18.676L181.424 18.136C183.632 18.136 185.252 18.544 186.284 19.36C187.316 20.176 187.832 21.376 187.832 22.96C187.832 24.568 187.244 25.816 186.068 26.704C184.916 27.568 183.128 28 180.704 28H172.568ZM174.332 26.524H180.668C182.42 26.524 183.752 26.236 184.664 25.66C185.576 25.084 186.032 24.16 186.032 22.888C186.032 21.592 185.624 20.656 184.808 20.08C184.016 19.48 182.732 19.18 180.956 19.18H174.332V26.524ZM174.332 17.776H180.38C181.964 17.776 183.188 17.476 184.052 16.876C184.94 16.276 185.384 15.388 185.384 14.212C185.384 13.036 184.94 12.16 184.052 11.584C183.188 10.984 181.964 10.684 180.38 10.684H174.332V17.776ZM202 28.144C200.104 28.144 198.424 27.736 196.96 26.92C195.52 26.104 194.38 24.976 193.54 23.536C192.724 22.096 192.316 20.452 192.316 18.604C192.316 16.732 192.7 15.088 193.468 13.672C194.26 12.232 195.34 11.104 196.708 10.288C198.076 9.472 199.612 9.064 201.316 9.064C203.02 9.064 204.544 9.46 205.888 10.252C207.256 11.044 208.324 12.16 209.092 13.6C209.884 15.016 210.28 16.66 210.28 18.532C210.28 18.604 210.268 18.688 210.244 18.784C210.244 18.856 210.244 18.94 210.244 19.036H193.648V17.632H209.272L208.552 18.316C208.576 16.852 208.264 15.544 207.616 14.392C206.992 13.216 206.14 12.304 205.06 11.656C203.98 10.984 202.732 10.648 201.316 10.648C199.924 10.648 198.676 10.984 197.572 11.656C196.492 12.304 195.64 13.216 195.016 14.392C194.392 15.544 194.08 16.864 194.08 18.352V18.676C194.08 20.212 194.416 21.58 195.088 22.78C195.784 23.956 196.732 24.88 197.932 25.552C199.132 26.2 200.5 26.524 202.036 26.524C203.236 26.524 204.352 26.308 205.384 25.876C206.44 25.444 207.328 24.784 208.048 23.896L209.092 25.084C208.276 26.092 207.244 26.86 205.996 27.388C204.772 27.892 203.44 28.144 202 28.144ZM225.629 28.144C223.973 28.144 222.473 27.76 221.129 26.992C219.809 26.224 218.753 25.132 217.961 23.716C217.193 22.276 216.809 20.572 216.809 18.604C216.809 16.636 217.193 14.944 217.961 13.528C218.753 12.088 219.809 10.984 221.129 10.216C222.473 9.448 223.973 9.064 225.629 9.064C227.405 9.064 228.989 9.472 230.381 10.288C231.797 11.08 232.901 12.196 233.693 13.636C234.509 15.076 234.917 16.732 234.917 18.604C234.917 20.476 234.509 22.132 233.693 23.572C232.901 25.012 231.797 26.14 230.381 26.956C228.989 27.748 227.405 28.144 225.629 28.144ZM216.197 34.984V9.208H217.925V15.364L217.637 18.64L217.997 21.916V34.984H216.197ZM225.521 26.524C226.961 26.524 228.257 26.2 229.409 25.552C230.561 24.88 231.461 23.944 232.109 22.744C232.781 21.544 233.117 20.164 233.117 18.604C233.117 17.02 232.781 15.64 232.109 14.464C231.461 13.264 230.561 12.34 229.409 11.692C228.257 11.02 226.961 10.684 225.521 10.684C224.081 10.684 222.785 11.02 221.633 11.692C220.505 12.34 219.605 13.264 218.933 14.464C218.285 15.64 217.961 17.02 217.961 18.604C217.961 20.164 218.285 21.544 218.933 22.744C219.605 23.944 220.505 24.88 221.633 25.552C222.785 26.2 224.081 26.524 225.521 26.524ZM248.259 28.144C246.459 28.144 244.851 27.736 243.435 26.92C242.043 26.104 240.927 24.976 240.087 23.536C239.271 22.096 238.863 20.452 238.863 18.604C238.863 16.732 239.271 15.088 240.087 13.672C240.927 12.232 242.043 11.104 243.435 10.288C244.851 9.472 246.459 9.064 248.259 9.064C250.059 9.064 251.667 9.472 253.083 10.288C254.499 11.104 255.615 12.232 256.431 13.672C257.247 15.088 257.655 16.732 257.655 18.604C257.655 20.452 257.247 22.096 256.431 23.536C255.615 24.976 254.499 26.104 253.083 26.92C251.667 27.736 250.059 28.144 248.259 28.144ZM248.259 26.524C249.699 26.524 250.995 26.2 252.147 25.552C253.299 24.88 254.199 23.944 254.847 22.744C255.495 21.544 255.819 20.164 255.819 18.604C255.819 17.02 255.495 15.64 254.847 14.464C254.199 13.264 253.299 12.34 252.147 11.692C250.995 11.02 249.699 10.684 248.259 10.684C246.819 10.684 245.523 11.02 244.371 11.692C243.243 12.34 242.343 13.264 241.671 14.464C241.023 15.64 240.699 17.02 240.699 18.604C240.699 20.164 241.023 21.544 241.671 22.744C242.343 23.944 243.243 24.88 244.371 25.552C245.523 26.2 246.819 26.524 248.259 26.524ZM275.053 28V21.088L275.449 21.52H268.789C266.437 21.52 264.601 21.016 263.281 20.008C261.985 18.976 261.337 17.464 261.337 15.472C261.337 13.36 262.045 11.788 263.461 10.756C264.877 9.724 266.749 9.208 269.077 9.208H276.709V28H275.053ZM261.229 28L266.449 20.764H268.357L263.209 28H261.229ZM275.053 20.584V10.252L275.449 10.792H269.185C267.265 10.792 265.777 11.164 264.721 11.908C263.665 12.652 263.137 13.864 263.137 15.544C263.137 18.616 265.081 20.152 268.969 20.152H275.449L275.053 20.584ZM287.89 28V10.288L288.394 10.828H280.546V9.208H297.034V10.828H289.186L289.69 10.288V28H287.89ZM300.888 28V9.208H302.688V17.776H315.432V9.208H317.232V28H315.432V19.36H302.688V28H300.888ZM332.493 28.144C330.693 28.144 329.085 27.736 327.669 26.92C326.277 26.104 325.161 24.976 324.321 23.536C323.505 22.096 323.097 20.452 323.097 18.604C323.097 16.732 323.505 15.088 324.321 13.672C325.161 12.232 326.277 11.104 327.669 10.288C329.085 9.472 330.693 9.064 332.493 9.064C334.293 9.064 335.901 9.472 337.317 10.288C338.733 11.104 339.849 12.232 340.665 13.672C341.481 15.088 341.889 16.732 341.889 18.604C341.889 20.452 341.481 22.096 340.665 23.536C339.849 24.976 338.733 26.104 337.317 26.92C335.901 27.736 334.293 28.144 332.493 28.144ZM332.493 26.524C333.933 26.524 335.229 26.2 336.381 25.552C337.533 24.88 338.433 23.944 339.081 22.744C339.729 21.544 340.053 20.164 340.053 18.604C340.053 17.02 339.729 15.64 339.081 14.464C338.433 13.264 337.533 12.34 336.381 11.692C335.229 11.02 333.933 10.684 332.493 10.684C331.053 10.684 329.757 11.02 328.605 11.692C327.477 12.34 326.577 13.264 325.905 14.464C325.257 15.64 324.933 17.02 324.933 18.604C324.933 20.164 325.257 21.544 325.905 22.744C326.577 23.944 327.477 24.88 328.605 25.552C329.757 26.2 331.053 26.524 332.493 26.524ZM355.347 28.144C353.523 28.144 351.891 27.736 350.451 26.92C349.035 26.104 347.907 24.976 347.067 23.536C346.251 22.096 345.843 20.452 345.843 18.604C345.843 16.732 346.251 15.076 347.067 13.636C347.907 12.196 349.035 11.08 350.451 10.288C351.891 9.472 353.523 9.064 355.347 9.064C356.859 9.064 358.227 9.352 359.451 9.928C360.699 10.504 361.707 11.368 362.475 12.52L361.143 13.492C360.471 12.532 359.631 11.824 358.623 11.368C357.615 10.912 356.523 10.684 355.347 10.684C353.883 10.684 352.563 11.02 351.387 11.692C350.235 12.34 349.323 13.264 348.651 14.464C348.003 15.64 347.679 17.02 347.679 18.604C347.679 20.188 348.003 21.58 348.651 22.78C349.323 23.956 350.235 24.88 351.387 25.552C352.563 26.2 353.883 26.524 355.347 26.524C356.523 26.524 357.615 26.296 358.623 25.84C359.631 25.384 360.471 24.676 361.143 23.716L362.475 24.688C361.707 25.84 360.699 26.704 359.451 27.28C358.227 27.856 356.859 28.144 355.347 28.144ZM370.788 28V10.288L371.292 10.828H363.444V9.208H379.932V10.828H372.084L372.588 10.288V28H370.788ZM391.31 16.048C393.638 16.072 395.414 16.588 396.638 17.596C397.862 18.58 398.474 20.032 398.474 21.952C398.474 23.944 397.826 25.468 396.53 26.524C395.234 27.58 393.35 28.096 390.878 28.072L383.786 28V9.208H385.586V15.976L391.31 16.048ZM390.842 26.632C392.762 26.656 394.202 26.272 395.162 25.48C396.146 24.688 396.638 23.512 396.638 21.952C396.638 20.44 396.158 19.312 395.198 18.568C394.238 17.824 392.786 17.44 390.842 17.416L385.586 17.38V26.56L390.842 26.632ZM420.419 28.144C418.619 28.144 417.011 27.736 415.595 26.92C414.203 26.104 413.087 24.976 412.247 23.536C411.431 22.096 411.023 20.452 411.023 18.604C411.023 16.732 411.431 15.088 412.247 13.672C413.087 12.232 414.203 11.104 415.595 10.288C417.011 9.472 418.619 9.064 420.419 9.064C422.219 9.064 423.827 9.472 425.243 10.288C426.659 11.104 427.775 12.232 428.591 13.672C429.407 15.088 429.815 16.732 429.815 18.604C429.815 20.452 429.407 22.096 428.591 23.536C427.775 24.976 426.659 26.104 425.243 26.92C423.827 27.736 422.219 28.144 420.419 28.144ZM420.419 26.524C421.859 26.524 423.155 26.2 424.307 25.552C425.459 24.88 426.359 23.944 427.007 22.744C427.655 21.544 427.979 20.164 427.979 18.604C427.979 17.02 427.655 15.64 427.007 14.464C426.359 13.264 425.459 12.34 424.307 11.692C423.155 11.02 421.859 10.684 420.419 10.684C418.979 10.684 417.683 11.02 416.531 11.692C415.403 12.34 414.503 13.264 413.831 14.464C413.183 15.64 412.859 17.02 412.859 18.604C412.859 20.164 413.183 21.544 413.831 22.744C414.503 23.944 415.403 24.88 416.531 25.552C417.683 26.2 418.979 26.524 420.419 26.524ZM447.881 26.416L447.449 26.956V9.208H449.249V26.956L448.709 26.416H459.653L459.149 26.956V9.208H460.949V28H435.677V9.208H437.477V26.956L436.973 26.416H447.881ZM468.724 28V9.208H470.524V25.228L483.916 9.208H485.5V28H483.7V11.98L470.308 28H468.724ZM501.471 28.18C499.959 28.18 498.615 27.916 497.439 27.388C496.287 26.86 495.303 26.08 494.487 25.048C493.695 24.016 493.083 22.744 492.651 21.232C492.219 19.696 492.003 17.932 492.003 15.94C492.003 13.996 492.195 12.328 492.579 10.936C492.963 9.52 493.467 8.332 494.091 7.372C494.739 6.388 495.471 5.584 496.287 4.96C497.103 4.336 497.943 3.844 498.807 3.484C499.695 3.1 500.571 2.812 501.435 2.62L509.751 0.639998L510.039 2.332L502.119 4.168C501.567 4.312 500.919 4.504 500.175 4.744C499.455 4.96 498.711 5.308 497.943 5.788C497.199 6.244 496.503 6.892 495.855 7.732C495.231 8.548 494.715 9.604 494.307 10.9C493.923 12.196 493.731 13.804 493.731 15.724C493.731 16.084 493.743 16.372 493.767 16.588C493.791 16.804 493.815 17.044 493.839 17.308C493.887 17.548 493.935 17.908 493.983 18.388L493.155 17.956C493.299 16.372 493.767 14.98 494.559 13.78C495.351 12.58 496.383 11.644 497.655 10.972C498.927 10.3 500.367 9.964 501.975 9.964C503.727 9.964 505.275 10.348 506.619 11.116C507.987 11.86 509.055 12.916 509.823 14.284C510.591 15.628 510.975 17.188 510.975 18.964C510.975 20.74 510.579 22.324 509.787 23.716C509.019 25.108 507.915 26.2 506.475 26.992C505.059 27.784 503.391 28.18 501.471 28.18ZM501.759 26.632C503.199 26.632 504.471 26.308 505.575 25.66C506.703 24.988 507.579 24.076 508.203 22.924C508.827 21.772 509.139 20.464 509.139 19C509.139 17.536 508.827 16.252 508.203 15.148C507.579 14.044 506.703 13.18 505.575 12.556C504.471 11.908 503.187 11.584 501.723 11.584C500.283 11.584 498.999 11.896 497.871 12.52C496.767 13.144 495.903 14.008 495.279 15.112C494.655 16.216 494.343 17.5 494.343 18.964C494.343 20.428 494.655 21.736 495.279 22.888C495.927 24.04 496.803 24.952 497.907 25.624C499.035 26.296 500.319 26.632 501.759 26.632ZM530.748 28L522.684 18.604L524.196 17.74L532.908 28H530.748ZM516.888 28V9.208H518.688V28H516.888ZM518.112 19.288V17.74H524.016V19.288H518.112ZM524.304 18.784L522.648 18.496L530.352 9.208H532.332L524.304 18.784ZM537.349 28V9.208H539.149V25.228L552.541 9.208H554.125V28H552.325V11.98L538.933 28H537.349Z" fill="#F2F4F3"/>
</svg>
