<svg width="752" height="105" viewBox="0 0 752 105" fill="none" xmlns="http://www.w3.org/2000/svg">
<path d="M47.4852 105L0.985156 -7.15256e-06H12.9852L56.4852 98.85H49.8852L93.6852 -7.15256e-06H104.935L58.4352 105H47.4852ZM130.074 46.95H185.574V56.4H130.074V46.95ZM131.274 95.4H194.424V105H120.174V-7.15256e-06H192.174V9.59999H131.274V95.4ZM220.516 105V-7.15256e-06H259.816C268.716 -7.15256e-06 276.366 1.45 282.766 4.35C289.166 7.15 294.066 11.25 297.466 16.65C300.966 21.95 302.716 28.4 302.716 36C302.716 43.4 300.966 49.8 297.466 55.2C294.066 60.5 289.166 64.6 282.766 67.5C276.366 70.3 268.716 71.7 259.816 71.7H226.666L231.616 66.6V105H220.516ZM292.216 105L265.216 66.9H277.216L304.366 105H292.216ZM231.616 67.5L226.666 62.25H259.516C270.016 62.25 277.966 59.95 283.366 55.35C288.866 50.75 291.616 44.3 291.616 36C291.616 27.6 288.866 21.1 283.366 16.5C277.966 11.9 270.016 9.59999 259.516 9.59999H226.666L231.616 4.35V67.5ZM328.914 105V-7.15256e-06H371.664C382.864 -7.15256e-06 392.664 2.24999 401.064 6.75C409.564 11.15 416.164 17.3 420.864 25.2C425.564 33.1 427.914 42.2 427.914 52.5C427.914 62.8 425.564 71.9 420.864 79.8C416.164 87.7 409.564 93.9 401.064 98.4C392.664 102.8 382.864 105 371.664 105H328.914ZM340.014 95.4H371.064C380.364 95.4 388.414 93.6 395.214 90C402.114 86.3 407.464 81.25 411.264 74.85C415.064 68.35 416.964 60.9 416.964 52.5C416.964 44 415.064 36.55 411.264 30.15C407.464 23.75 402.114 18.75 395.214 15.15C388.414 11.45 380.364 9.59999 371.064 9.59999H340.014V95.4ZM462.74 46.95H518.24V56.4H462.74V46.95ZM463.94 95.4H527.09V105H452.84V-7.15256e-06H524.84V9.59999H463.94V95.4ZM553.182 105V-7.15256e-06H592.482C601.382 -7.15256e-06 609.032 1.45 615.432 4.35C621.832 7.15 626.732 11.25 630.132 16.65C633.632 21.95 635.382 28.4 635.382 36C635.382 43.4 633.632 49.8 630.132 55.2C626.732 60.5 621.832 64.6 615.432 67.5C609.032 70.3 601.382 71.7 592.482 71.7H559.332L564.282 66.6V105H553.182ZM624.882 105L597.882 66.9H609.882L637.032 105H624.882ZM564.282 67.5L559.332 62.25H592.182C602.682 62.25 610.632 59.95 616.032 55.35C621.532 50.75 624.282 44.3 624.282 36C624.282 27.6 621.532 21.1 616.032 16.5C610.632 11.9 602.682 9.59999 592.182 9.59999H559.332L564.282 4.35V67.5ZM644.78 105L692.78 -7.15256e-06H703.73L751.73 105H740.03L695.93 6.45H700.43L656.33 105H644.78ZM663.68 76.95L666.98 67.95H728.03L731.33 76.95H663.68Z" fill="#F2F4F3"/>
</svg>
