<svg width="55" height="50" viewBox="0 0 55 50" fill="none" xmlns="http://www.w3.org/2000/svg">
<path fill-rule="evenodd" clip-rule="evenodd" d="M54.8942 5.96352C55.6857 2.12088 51.8958 -1.07244 48.2218 0.341296L3.18493 17.6705C-0.91807 19.2492 -1.10089 24.9632 2.89284 26.7987L12.7006 31.3069L17.3663 47.5697C17.6086 48.4144 18.2817 49.0685 19.1357 49.289C19.9896 49.5091 20.8969 49.2632 21.5207 48.6418L28.7077 41.4843L38.7753 49.0041C41.6977 51.1868 45.9068 49.5969 46.6408 46.0331L54.8942 5.96352ZM4.97951 22.2962L50.0164 4.96704L41.763 45.0369L29.968 36.2267C28.9768 35.4864 27.5898 35.5846 26.7137 36.4571L23.6354 39.5227L24.5603 34.4569L42.6832 16.4085C43.5653 15.5301 43.6584 14.1373 42.9013 13.1502C42.1441 12.163 40.7706 11.8861 39.6876 12.5024L14.6594 26.7454L4.97951 22.2962ZM17.711 30.7203L19.2207 35.9828L19.8004 32.8078C19.891 32.3116 20.1313 31.8547 20.4894 31.4981L26.0163 25.9941L17.711 30.7203Z" fill="#F2F4F3"/>
</svg>
