<svg width="66" height="37" viewBox="0 0 66 37" fill="none" xmlns="http://www.w3.org/2000/svg">
<path d="M56.8022 23.5264C58.9916 25.6439 61.3022 27.636 63.2658 29.967C64.1332 31.0029 64.9544 32.0718 65.5827 33.2739C66.4729 34.9828 65.6666 36.8633 64.1198 36.9653L54.5047 36.961C52.0249 37.1648 50.0465 36.1759 48.3831 34.4961C47.0519 33.1529 45.8191 31.7233 44.539 30.3347C44.0143 29.7672 43.465 29.2331 42.8089 28.811C41.4963 27.967 40.3569 28.2254 39.6068 29.5815C38.8429 30.9609 38.6696 32.4882 38.5945 34.0254C38.4915 36.2683 37.8072 36.858 35.5329 36.9607C30.6725 37.1878 26.0597 36.4594 21.7745 34.0304C17.9965 31.8892 15.067 28.8661 12.517 25.444C7.55244 18.7803 3.75036 11.4578 0.333326 3.93018C-0.435855 2.23422 0.12669 1.32385 2.01568 1.29154C5.15234 1.23114 8.28863 1.23548 11.429 1.2872C12.7039 1.30572 13.5479 2.03003 14.0401 3.22311C15.7372 7.35685 17.8137 11.2897 20.4202 14.9351C21.1144 15.9056 21.8222 16.8763 22.83 17.5593C23.945 18.3157 24.794 18.065 25.3185 16.8345C25.6513 16.0543 25.7971 15.2139 25.8722 14.3784C26.1207 11.5035 26.1534 8.63345 25.7176 5.76866C25.45 3.98075 24.4334 2.82329 22.6325 2.48502C21.7135 2.31249 21.8503 1.97371 22.2953 1.4541C23.0681 0.557915 23.795 0 25.244 0H36.1105C37.8212 0.334443 38.2011 1.09578 38.4353 2.80094L38.4446 14.7583C38.4259 15.4183 38.7775 17.3774 39.9777 17.8142C40.9383 18.1253 41.5715 17.3639 42.148 16.7606C44.7497 14.0251 46.6066 10.7923 48.2654 7.44483C49.0016 5.97285 49.6347 4.44429 50.2481 2.91689C50.7027 1.78357 51.4159 1.22591 52.7046 1.25055L63.163 1.25975C63.4731 1.25975 63.7869 1.26422 64.0872 1.31517C65.8495 1.61271 66.3325 2.3637 65.7881 4.06848C64.9305 6.74313 63.2618 8.9721 61.6303 11.2113C59.8862 13.6019 58.0208 15.9109 56.2913 18.3157C54.7021 20.5121 54.8283 21.619 56.8022 23.5264Z" fill="#F2F4F3"/>
</svg>
