<svg width="55" height="55" viewBox="0 0 55 55" fill="none" xmlns="http://www.w3.org/2000/svg">
<path d="M46.7792 7.97515C44.2576 5.43629 41.2562 3.42381 37.9497 2.05469C34.6428 0.685578 31.0965 -0.0127822 27.5172 0.000177107C22.7323 0.00485209 18.0323 1.26586 13.8883 3.65691C9.74432 6.04795 6.30171 9.48513 3.90517 13.6242C1.50863 17.7633 0.242358 22.459 0.233071 27.2409C0.223818 32.0232 1.47193 36.7236 3.85241 40.8719L0 55L14.4465 51.2188C18.4357 53.4366 22.918 54.6188 27.4828 54.6563C34.7394 54.6566 41.7023 51.7921 46.8556 46.6868C52.0092 41.5818 54.9364 34.6487 55 27.397C54.9759 23.7783 54.2371 20.2001 52.8265 16.8673C51.4159 13.5345 49.3607 10.5127 46.7792 7.97515ZM27.5172 49.9469C23.4505 49.9496 19.4581 48.8572 15.96 46.7844L15.1345 46.2688L6.56973 48.5375L8.8399 40.1844L8.28956 39.3251C5.36327 34.6044 4.27115 28.9748 5.22008 23.503C6.16901 18.0314 9.09309 13.0976 13.4384 9.63624C17.7837 6.1749 23.2482 4.42649 28.7971 4.72222C34.3459 5.01791 39.5938 7.33722 43.546 11.2408C47.8662 15.4626 50.3393 21.2215 50.4253 27.2595C50.3709 33.2954 47.9332 39.0655 43.643 43.3146C39.353 47.5633 33.5572 49.9472 27.5172 49.9469ZM39.9343 32.9657C39.2464 32.622 35.9099 30.972 35.2908 30.7657C34.6717 30.5595 34.1901 30.422 33.743 31.1095C33.0702 32.0311 32.3465 32.9145 31.576 33.7563C31.1976 34.2376 30.7849 34.272 30.0969 33.7563C26.1747 32.2074 22.907 29.3543 20.8443 25.6782C20.122 24.4751 21.5322 24.5439 22.8393 21.9658C22.9359 21.7798 22.9861 21.5735 22.9861 21.3642C22.9861 21.1549 22.9359 20.9486 22.8393 20.7626C22.8393 20.4188 21.2914 17.0501 20.7411 15.7095C20.1907 14.3689 19.6404 14.5751 19.1932 14.5407H17.8518C17.5042 14.5461 17.1618 14.6255 16.8474 14.7737C16.533 14.9219 16.2539 15.1355 16.0288 15.4001C15.257 16.1501 14.655 17.0567 14.2634 18.0588C13.8718 19.0609 13.6997 20.1353 13.7586 21.2095C13.9743 23.7811 14.9433 26.232 16.5447 28.2564C19.476 32.6419 23.4932 36.1945 28.2051 38.5688C30.6765 40.0105 33.5486 40.6134 36.3915 40.2876C37.3381 40.0999 38.2348 39.7152 39.0228 39.1583C39.8112 38.6018 40.4733 37.8854 40.9662 37.0563C41.423 36.0443 41.5668 34.9192 41.379 33.8251C41.0694 33.4813 40.6223 33.3095 39.9343 32.9657Z" fill="#F2F4F3"/>
</svg>
